<?xml version="1.0" standalone="no"?>
<!DOCTYPE svg PUBLIC "-//W3C//DTD SVG 20010904//EN"
 "http://www.w3.org/TR/2001/REC-SVG-20010904/DTD/svg10.dtd">
<svg version="1.0" xmlns="http://www.w3.org/2000/svg"
 width="668.000000pt" height="1280.000000pt" viewBox="0 0 668.000000 1280.000000"
 preserveAspectRatio="xMidYMid meet">

<g transform="translate(0.000000,1280.000000) scale(0.100000,-0.100000)"
fill="#000000" stroke="none">
<path d="M2645 12786 c-92 -19 -123 -36 -223 -124 -51 -45 -99 -82 -108 -82
-9 0 -57 16 -107 36 -118 47 -325 99 -457 114 -203 24 -443 -3 -640 -72 -143
-50 -208 -91 -386 -240 -37 -32 -72 -58 -76 -58 -14 0 27 71 86 148 76 100 75
120 -3 59 -108 -85 -259 -320 -331 -513 -27 -75 -29 -77 -30 -40 0 22 14 91
31 154 17 62 28 116 26 118 -9 9 -95 -172 -120 -251 -42 -135 -52 -216 -51
-420 1 -181 2 -195 32 -307 36 -131 35 -128 24 -128 -14 0 -29 41 -78 204 -42
141 -46 163 -55 326 -6 96 -13 177 -15 179 -2 2 -11 -13 -19 -33 -58 -139 -24
-513 67 -719 48 -111 23 -102 -75 27 -64 84 -81 86 -52 8 37 -98 96 -201 180
-317 48 -66 95 -131 103 -144 l16 -24 -35 18 c-60 31 -108 77 -216 203 -58 67
-107 122 -110 122 -10 0 10 -66 34 -115 42 -84 107 -168 193 -248 165 -155
335 -225 593 -243 53 -4 97 -10 97 -13 0 -3 -39 -49 -86 -101 -114 -127 -193
-233 -270 -362 -214 -361 -348 -741 -385 -1096 -15 -146 -6 -599 15 -780 36
-306 83 -562 155 -847 58 -233 74 -327 75 -445 1 -125 -12 -172 -90 -310 -124
-222 -164 -344 -171 -530 -6 -144 5 -212 47 -298 42 -83 127 -173 197 -208 32
-16 60 -30 62 -31 2 -2 -32 -37 -77 -78 -247 -230 -311 -520 -196 -887 40
-128 99 -232 176 -312 l68 -71 -65 -95 c-106 -156 -163 -307 -184 -490 -18
-150 5 -287 78 -462 21 -51 60 -145 86 -208 58 -141 92 -271 101 -389 l7 -90
27 14 c60 31 110 107 145 220 l21 70 29 -49 c42 -72 54 -114 54 -191 1 -128
-31 -212 -118 -309 -69 -78 -68 -86 17 -86 68 0 105 16 168 73 l52 47 7 -45
c8 -60 45 -128 134 -250 109 -149 125 -185 126 -275 0 -69 -3 -79 -32 -122
-18 -26 -33 -51 -33 -57 0 -17 61 -12 105 8 53 24 98 77 115 135 12 43 14 45
30 31 10 -9 20 -38 24 -73 16 -132 149 -453 225 -542 l30 -35 1 32 c0 17 -7
63 -15 102 -8 39 -12 85 -8 103 9 46 51 138 63 138 20 0 84 -75 109 -129 22
-48 26 -69 26 -151 0 -86 -3 -101 -33 -164 -17 -37 -32 -70 -32 -73 0 -8 64 9
101 28 51 25 115 101 134 158 8 26 19 74 23 106 l7 60 21 -30 c34 -49 44 -93
55 -235 11 -157 22 -217 48 -268 24 -47 56 -77 105 -97 l39 -16 -7 23 c-4 13
-10 52 -13 88 -7 88 23 168 84 227 57 56 67 55 60 -4 -10 -87 31 -224 77 -262
14 -12 16 -5 16 70 0 63 5 93 21 126 11 24 24 43 27 43 4 0 15 -32 24 -70 34
-142 137 -340 231 -446 27 -30 53 -54 58 -54 5 0 -1 26 -14 57 -34 88 -30 203
9 279 33 65 54 80 54 38 0 -51 34 -136 71 -178 32 -35 39 -39 53 -27 13 11 17
10 25 -10 4 -13 27 -73 49 -134 44 -119 90 -215 103 -215 25 0 139 278 139
339 0 29 1 30 25 19 52 -23 105 48 128 174 7 32 15 58 19 58 16 0 57 -77 68
-124 12 -54 3 -141 -24 -228 -8 -27 -10 -48 -5 -48 9 0 100 112 146 180 66 98
153 309 153 371 0 32 17 21 40 -26 19 -38 21 -59 19 -130 l-4 -84 24 22 c42
39 63 103 70 210 l6 100 44 -34 c64 -48 96 -116 96 -199 0 -36 -3 -84 -8 -108
l-7 -42 37 15 c93 39 129 115 144 300 14 182 27 245 57 290 l26 40 8 -60 c21
-164 99 -263 227 -290 31 -7 33 -5 26 11 -75 179 -84 282 -34 382 26 53 89
122 110 122 3 0 19 -28 34 -62 24 -54 27 -69 21 -127 -3 -36 -8 -93 -11 -126
l-6 -60 31 35 c40 45 141 249 179 362 16 48 35 122 42 163 8 44 20 82 30 91
15 13 17 11 28 -30 20 -82 109 -155 189 -156 17 0 32 2 32 5 0 2 -16 33 -35
68 -66 120 -46 198 101 402 82 114 117 181 129 248 l7 38 49 -46 c60 -56 103
-75 168 -75 86 0 87 4 22 84 -87 105 -113 164 -119 261 -5 102 10 179 50 241
l31 49 16 -60 c24 -84 68 -160 120 -206 24 -21 47 -39 51 -39 4 0 10 39 13 88
9 129 46 257 135 473 44 107 89 226 101 264 57 191 42 394 -44 614 -30 77 -63
135 -126 223 -27 37 -49 70 -49 74 0 3 23 27 52 52 106 96 189 262 224 449 20
109 15 337 -10 428 -41 149 -135 281 -265 372 -36 26 -70 50 -75 54 -5 4 8 15
28 23 63 26 159 128 202 213 l39 76 0 191 c-1 180 -2 196 -28 271 -14 44 -61
143 -103 220 -106 193 -117 225 -122 367 -5 137 10 240 63 433 96 348 145 656
166 1042 18 332 -4 612 -71 873 -117 462 -347 907 -609 1183 -61 64 -111 120
-111 126 0 13 26 18 210 41 186 23 257 38 355 75 189 71 351 216 390 351 l15
49 -64 -66 c-128 -133 -195 -162 -98 -43 79 96 127 171 152 234 29 73 21 82
-22 24 -39 -53 -137 -151 -178 -178 -71 -47 -52 10 30 89 106 103 207 249 309
453 33 64 80 144 106 177 57 75 149 260 168 340 31 125 30 120 12 105 -9 -8
-27 -35 -41 -61 -23 -46 -40 -66 -50 -56 -2 2 12 55 31 117 19 62 34 114 32
116 -2 2 -24 -24 -49 -59 -26 -34 -61 -76 -80 -94 -47 -45 -172 -126 -176
-113 -2 5 17 38 42 71 26 34 44 64 41 67 -3 3 -45 -21 -93 -55 -217 -151 -415
-214 -596 -192 -168 21 -342 95 -639 271 -267 159 -415 215 -636 238 l-104 11
-67 60 c-270 242 -530 355 -890 388 -159 15 -668 12 -745 -3z m817 -50 c192
-57 280 -115 489 -320 150 -148 183 -191 92 -122 -147 112 -243 159 -412 203
-138 37 -366 43 -502 15 -201 -41 -384 -139 -529 -282 -199 -196 -243 -255
-297 -399 -31 -84 -73 -256 -73 -303 0 -20 -5 -40 -11 -44 -15 -9 -4 150 18
256 46 227 187 452 373 594 299 228 425 276 795 299 l40 2 -50 19 c-38 14 -87
20 -201 23 -246 8 -419 -29 -634 -137 -82 -41 -99 -47 -90 -30 17 32 118 106
195 145 171 84 328 116 550 111 138 -3 172 -7 247 -30z m-1785 -71 c110 -18
365 -101 480 -156 64 -31 99 -41 158 -46 73 -6 75 -7 47 -19 -52 -22 -48 -34
12 -34 38 0 99 14 196 45 166 53 205 58 98 11 -145 -63 -276 -152 -383 -261
-149 -151 -233 -296 -300 -516 l-26 -84 5 70 c6 85 33 169 93 293 53 108 95
165 207 281 87 90 84 95 -29 38 -204 -102 -391 -262 -490 -422 -68 -109 -87
-178 -93 -326 -4 -113 8 -270 25 -317 4 -11 3 -14 -4 -7 -22 23 -55 123 -66
201 -6 46 -14 84 -18 84 -11 0 -19 -162 -11 -233 5 -37 5 -64 1 -60 -18 19
-41 137 -46 239 -12 242 71 451 252 629 98 97 223 178 383 249 73 33 129 63
125 67 -5 4 -28 12 -52 18 -94 21 -233 -30 -377 -137 -252 -187 -380 -415
-401 -714 -3 -43 -10 -78 -14 -78 -15 0 -10 197 7 278 43 211 165 390 365 539
49 36 88 67 86 69 -6 6 -107 -30 -157 -56 -135 -68 -315 -211 -409 -325 l-33
-40 28 55 c40 74 179 213 297 294 54 37 97 70 94 72 -7 7 -89 -25 -147 -58
-92 -51 -181 -118 -264 -197 -84 -82 -87 -63 -4 35 72 87 163 158 288 228 75
41 71 43 -35 16 -264 -68 -575 -348 -720 -651 -40 -83 -44 -76 -15 25 23 83
60 163 128 276 28 47 49 86 47 88 -15 16 -118 -104 -194 -224 -40 -63 -39 -50
0 29 54 106 108 178 223 296 78 80 104 111 86 106 -59 -17 -247 -186 -354
-318 -21 -26 -41 -45 -43 -43 -13 12 89 175 167 267 49 57 87 106 85 107 -5 5
-89 -53 -143 -97 -24 -20 -62 -60 -85 -90 -29 -37 -43 -49 -45 -38 -2 9 2 26
8 38 25 45 -11 6 -59 -67 -91 -136 -191 -381 -191 -472 -1 -32 -2 -34 -12 -18
-16 28 5 203 38 307 56 181 164 361 281 470 250 234 582 337 910 284z m-477
-2155 c0 -12 52 -34 100 -43 87 -17 317 -163 487 -310 115 -100 190 -157 205
-157 6 0 0 16 -11 36 -12 20 -20 38 -18 40 3 3 83 -35 177 -85 19 -11 52 -26
73 -35 21 -9 62 -34 90 -55 49 -37 126 -76 134 -68 2 2 -6 16 -18 30 -11 15
-18 27 -16 27 3 0 36 -10 73 -21 78 -24 130 -49 191 -90 23 -16 44 -29 47 -29
3 0 6 13 6 29 l0 28 88 -17 c133 -28 264 -41 298 -31 16 5 78 45 137 90 59 45
107 79 107 76 0 -3 -5 -15 -11 -27 -6 -11 -8 -22 -6 -25 11 -10 131 61 223
134 295 232 397 295 497 309 56 8 60 -3 17 -48 -16 -17 -30 -37 -30 -44 0 -15
58 8 265 103 154 71 304 129 376 144 68 15 164 7 212 -16 89 -42 232 -205 392
-445 289 -432 395 -849 395 -1552 0 -259 -7 -307 -120 -883 -86 -433 -116
-565 -150 -654 -42 -110 -78 -160 -159 -227 -80 -65 -76 -77 14 -43 41 15 74
38 117 81 33 33 57 52 54 41 -3 -10 -16 -71 -30 -136 -39 -183 -88 -272 -178
-318 -45 -23 -118 -25 -158 -4 -61 32 -75 112 -28 162 27 29 78 31 103 3 19
-21 14 -50 -9 -50 -24 0 -31 -41 -10 -57 58 -42 125 21 109 103 -19 105 -167
134 -251 50 -85 -85 -52 -234 63 -282 72 -31 191 -7 251 48 31 30 28 16 -12
-46 -43 -67 -70 -86 -121 -86 -41 0 -58 8 -202 100 -76 48 -148 62 -258 50
-49 -6 -112 -11 -140 -13 l-50 -2 45 -23 c25 -13 56 -34 69 -45 45 -42 164
-178 159 -182 -3 -3 -74 13 -159 34 -85 22 -192 47 -238 55 -104 20 -253 21
-315 2 -45 -14 -122 -63 -113 -72 2 -3 38 4 78 16 137 38 247 25 518 -61 271
-85 412 -98 543 -49 72 27 184 106 237 167 74 86 143 241 202 453 l12 45 24
-125 c28 -146 25 -200 -16 -286 -35 -73 -112 -176 -154 -206 -17 -13 -70 -42
-117 -66 l-85 -42 56 3 c174 10 400 215 425 387 l7 45 14 -39 c23 -69 27 -164
9 -236 -46 -178 -194 -280 -410 -280 -105 0 -181 12 -426 69 -254 58 -333 65
-505 41 l-140 -18 -60 25 c-33 14 -85 36 -116 49 -108 45 -255 73 -390 74 -71
0 -77 2 -83 23 l-7 22 -11 -22 c-7 -14 -20 -23 -35 -23 l-23 0 24 38 c31 46
58 146 49 181 -10 42 -33 82 -81 141 -61 75 -95 151 -136 308 -50 187 -82 241
-155 262 -31 9 -35 6 -95 -56 -80 -81 -101 -83 -161 -18 -81 88 -114 96 -174
41 -29 -27 -36 -45 -72 -182 -52 -196 -92 -280 -182 -388 l-42 -49 0 -92 c0
-74 5 -99 22 -135 12 -25 21 -46 20 -46 -1 -1 -74 -7 -162 -13 -188 -13 -262
-31 -405 -102 -57 -27 -113 -50 -124 -50 -12 0 -46 7 -76 15 -163 44 -281 40
-535 -21 -388 -91 -545 -98 -700 -29 -150 66 -226 224 -196 406 18 111 23 111
65 5 47 -120 83 -174 149 -224 90 -68 173 -104 247 -109 l65 -3 -112 55 c-126
62 -172 106 -224 210 -60 121 -75 258 -43 380 18 73 34 93 34 44 0 -58 38
-178 91 -288 44 -89 63 -116 137 -191 102 -101 154 -134 259 -160 145 -38 254
-25 508 60 254 85 364 98 505 61 41 -11 76 -18 78 -16 9 9 -93 64 -140 75
-100 25 -260 8 -482 -50 -109 -28 -201 -49 -204 -45 -3 3 10 22 30 43 20 20
44 53 53 72 18 34 18 35 -1 20 -10 -8 -51 -44 -89 -80 -80 -75 -126 -100 -182
-100 -41 0 -109 27 -150 60 l-26 20 82 0 c64 0 94 5 146 26 79 32 87 50 10 24
-73 -25 -175 -32 -175 -11 0 15 94 79 176 122 72 37 79 39 167 39 51 -1 111
-4 133 -9 32 -6 49 -4 75 9 l33 18 -147 7 c-80 4 -166 4 -189 1 -56 -8 -127
-42 -211 -99 -86 -59 -111 -66 -156 -41 -32 17 -111 114 -111 136 0 4 18 -5
40 -21 82 -59 208 -68 273 -18 96 73 90 231 -12 291 -63 37 -162 21 -198 -33
-19 -28 -23 -125 -6 -142 17 -17 77 -21 97 -6 23 17 14 52 -14 60 -44 11 -3
67 48 67 33 0 82 -52 82 -87 0 -55 -64 -123 -116 -123 -142 0 -276 194 -308
448 l-7 53 23 -15 c13 -8 42 -35 65 -60 48 -51 82 -71 138 -82 l40 -7 -61 52
c-109 93 -137 144 -180 336 -14 61 -58 223 -99 360 -107 362 -148 563 -179
895 -54 565 -17 913 140 1310 143 359 426 773 616 900 60 40 88 49 88 30z
m3690 -4254 c65 -34 178 -110 189 -128 10 -17 6 -18 -54 -18 -41 0 -83 7 -116
20 -28 12 -54 19 -56 16 -3 -2 17 -17 44 -33 43 -25 59 -28 150 -31 l102 -4
-28 -24 c-38 -32 -73 -44 -130 -44 -93 0 -169 43 -247 141 -26 33 -67 70 -91
84 -69 41 -57 47 80 43 93 -3 130 -8 157 -22z m-1833 -77 c15 -6 57 -39 93
-73 70 -68 91 -82 151 -99 l39 -12 -143 -68 -144 -67 -146 66 c-81 37 -147 70
-147 74 0 4 19 15 43 26 23 10 71 46 107 80 60 57 95 83 112 84 4 0 19 -5 35
-11z m-587 -380 c-21 -17 -21 -20 -5 -14 57 19 121 26 163 19 l47 -7 -45 -8
c-114 -18 -239 -88 -308 -173 -36 -44 -99 -146 -89 -146 2 0 32 36 67 80 69
88 133 146 195 177 39 19 95 37 95 30 0 -2 -22 -18 -48 -35 -96 -62 -201 -186
-305 -359 -124 -206 -177 -275 -249 -329 -54 -39 -165 -91 -175 -80 -2 2 21
18 51 35 73 42 147 110 190 175 20 30 36 58 36 62 0 4 -27 -19 -60 -50 -32
-31 -74 -63 -92 -70 -75 -31 -82 -27 -26 13 83 60 143 139 232 308 50 93 103
177 145 228 l66 79 -40 -23 c-64 -36 -70 -43 -285 -311 -289 -360 -437 -499
-636 -592 -329 -154 -665 -97 -846 143 -26 35 -48 69 -48 74 1 6 11 -3 23 -20
12 -16 45 -51 72 -77 56 -53 84 -62 229 -78 389 -44 795 173 1108 589 35 47
69 87 76 89 11 4 11 0 -1 -19 -37 -61 -68 -123 -55 -109 8 8 61 68 118 134
132 152 222 219 355 267 66 23 75 23 45 -2z m1258 -15 c126 -55 188 -109 411
-354 l32 -35 -38 69 c-20 38 -32 66 -25 62 6 -3 58 -64 115 -134 174 -212 316
-333 504 -430 185 -95 380 -133 578 -113 71 7 124 18 152 32 39 19 60 39 143
139 20 24 20 24 -1 -20 -48 -99 -188 -205 -339 -256 -79 -27 -275 -25 -382 4
-97 26 -209 78 -301 139 -101 67 -288 258 -412 423 -189 251 -274 344 -367
403 -44 27 -43 20 1 -28 54 -58 134 -183 201 -313 65 -124 127 -204 197 -251
29 -19 51 -37 48 -39 -10 -10 -115 50 -162 92 -57 52 -66 52 -31 3 47 -68 85
-104 171 -164 50 -35 88 -63 85 -63 -3 0 -30 9 -61 19 -124 43 -219 138 -338
339 -152 255 -227 346 -344 417 l-60 37 40 -7 c86 -15 170 -79 277 -213 68
-85 75 -82 17 8 -85 132 -216 225 -336 239 l-58 7 41 8 c38 7 89 3 139 -11 18
-5 18 -4 6 11 -13 16 -12 17 15 10 16 -4 53 -17 82 -30z m-259 -243 c47 -64
110 -201 171 -371 69 -193 132 -322 180 -370 43 -43 117 -84 220 -121 36 -13
57 -25 48 -27 -34 -7 -179 41 -296 98 l-121 58 -32 -49 c-50 -78 -111 -99
-164 -57 -45 35 -65 92 -65 186 0 45 2 82 5 82 4 0 20 -7 38 -16 27 -14 23 -8
-28 47 -113 120 -236 282 -223 295 2 2 21 -19 42 -45 49 -65 227 -236 267
-256 30 -16 31 -16 24 6 -28 86 -215 467 -269 548 -20 30 -34 56 -32 59 3 2
30 -21 61 -52 42 -43 70 -87 115 -179 58 -118 140 -348 140 -392 0 -26 84
-105 112 -105 3 0 -11 37 -32 83 -21 45 -61 145 -89 222 -84 230 -122 326
-158 397 -18 37 -33 70 -33 74 0 13 86 -71 119 -115z m1839 -37 c73 -36 106
-92 100 -173 -5 -72 -32 -112 -101 -149 -45 -23 -63 -27 -137 -26 -49 1 -102
7 -125 16 l-40 15 1 71 c2 91 28 171 71 222 57 66 129 73 231 24z m-4328 -14
c39 -77 82 -311 60 -325 -24 -15 -140 -18 -185 -5 -63 18 -132 80 -146 132
-33 125 58 237 193 238 57 0 58 0 78 -40z m2245 -355 c72 -73 133 -240 121
-338 -10 -89 -66 -147 -144 -147 -74 0 -122 64 -143 190 -26 156 34 330 113
330 9 0 33 -16 53 -35z m-272 -14 c44 -110 49 -341 9 -417 -39 -76 -119 -81
-196 -13 -76 66 -67 229 21 353 27 38 124 116 144 116 4 0 14 -18 22 -39z
m-315 -498 c23 -6 24 -7 17 -93 -5 -69 -3 -100 11 -150 17 -61 17 -63 -1 -76
-70 -52 -163 40 -172 171 -8 113 52 174 145 148z m886 -18 c33 -30 46 -64 46
-117 0 -64 -21 -119 -62 -160 -39 -39 -72 -47 -109 -28 -23 13 -24 31 -3 90
11 30 15 70 12 121 -2 65 0 80 16 98 25 28 67 27 100 -4z m-427 -9 c26 -23 28
-29 28 -98 -1 -85 -24 -164 -62 -204 l-26 -28 -32 36 c-59 64 -92 193 -65 262
21 55 109 73 157 32z m-247 -16 c22 -12 38 -79 47 -203 6 -80 4 -91 -12 -103
-30 -22 -80 -17 -113 11 -73 61 -103 269 -44 305 19 12 92 6 122 -10z m477 5
c87 -61 11 -325 -92 -325 -21 0 -40 9 -55 25 l-23 25 15 127 c13 109 18 129
38 145 27 22 88 24 117 3z m-937 -285 c38 -26 51 -29 87 -24 33 5 50 1 83 -17
40 -23 42 -23 101 -8 l60 16 34 -34 c41 -41 81 -43 142 -7 48 28 55 27 72 -14
17 -41 -18 -131 -71 -184 -36 -36 -39 -43 -29 -65 15 -33 15 -33 -19 -20 -22
8 -35 23 -47 55 l-16 43 -53 -98 c-31 -57 -54 -111 -54 -129 0 -41 -8 -46 -32
-22 l-20 20 -30 -53 c-138 -250 -176 -363 -209 -624 l-13 -100 -13 55 c-44
197 -38 294 28 430 42 89 59 106 30 33 -10 -27 -21 -64 -25 -83 -5 -27 -2 -24
13 16 28 77 47 109 137 241 47 67 87 136 91 154 6 30 4 32 -17 26 -22 -6 -22
-4 -16 45 4 28 12 60 18 71 10 19 8 20 -51 13 -59 -7 -61 -6 -67 18 -3 14 -3
30 1 35 9 15 -7 13 -29 -4 -28 -22 -33 -19 -56 24 -25 51 -84 99 -137 113 -38
11 -42 14 -36 37 7 33 22 51 48 61 34 14 48 11 95 -20z m1473 -14 l16 -34 -71
-17 c-44 -11 -85 -29 -112 -50 l-43 -32 -37 19 c-21 11 -40 18 -42 15 -2 -2 5
-25 17 -51 19 -44 19 -49 5 -72 -27 -40 -67 -36 -118 13 l-37 36 -6 -26 c-5
-18 0 -40 14 -67 20 -39 20 -39 -71 35 -51 41 -93 73 -95 72 -1 -2 7 -32 18
-66 12 -34 19 -64 16 -67 -9 -10 -45 15 -67 46 -17 25 -25 28 -36 19 -8 -6
-11 -15 -9 -20 3 -4 -7 -7 -22 -6 -22 2 -29 -3 -31 -20 -5 -35 -22 -27 -22 10
0 51 -18 102 -45 127 l-25 23 0 -21 c0 -12 -16 -42 -35 -68 -39 -50 -42 -66
-20 -84 20 -17 19 -50 -3 -78 l-18 -24 -17 69 c-18 75 -15 98 22 170 24 49 46
71 94 96 34 18 34 18 72 -7 47 -32 66 -32 132 -2 43 20 66 24 131 23 53 -1 84
2 95 11 8 7 47 16 86 21 45 4 78 13 88 24 13 13 35 17 88 17 71 0 71 0 88 -34z
m-2648 -144 c-6 -5 -52 -37 -102 -72 -84 -56 -193 -158 -193 -180 0 -5 47 14
104 41 124 61 176 64 65 4 -51 -27 -102 -68 -165 -130 -78 -77 -98 -104 -137
-185 -50 -102 -77 -211 -77 -308 0 -62 15 -158 32 -201 l10 -26 14 27 c7 14
23 66 34 114 44 187 117 328 263 502 77 92 109 111 48 29 -70 -96 -189 -303
-179 -313 2 -2 38 31 79 74 42 42 96 88 120 101 l44 25 -70 -75 c-108 -116
-291 -388 -327 -485 -6 -19 -15 -34 -18 -34 -14 0 -70 111 -92 180 -31 102
-31 247 1 378 13 51 21 96 18 98 -10 11 -56 -63 -76 -122 -11 -34 -28 -117
-37 -185 -9 -68 -19 -131 -23 -139 -15 -36 -11 212 4 277 21 89 82 214 142
287 81 98 314 263 434 306 57 20 100 26 84 12z m3830 -41 c75 -36 148 -85 273
-184 145 -113 241 -292 258 -480 6 -66 -2 -195 -11 -185 -2 2 -13 59 -24 128
-11 69 -29 154 -40 190 -20 63 -78 176 -87 168 -2 -3 10 -58 26 -124 21 -83
30 -143 30 -200 0 -122 -43 -271 -98 -342 l-18 -23 -37 74 c-74 149 -324 497
-357 497 -6 0 -10 4 -10 10 0 21 79 -38 154 -114 80 -83 89 -81 43 9 -32 65
-116 197 -154 243 -55 67 -32 60 32 -10 143 -157 233 -323 290 -538 36 -135
41 -148 50 -138 14 13 35 152 35 228 0 114 -22 209 -69 305 -70 141 -156 229
-317 326 -61 37 -65 40 -34 35 19 -3 75 -26 124 -51 48 -25 91 -44 94 -41 10
10 -144 153 -220 205 -43 28 -78 54 -78 57 0 12 70 -10 145 -45z m-2460 -591
l-75 -225 4 95 c4 113 31 196 96 295 24 36 44 64 46 62 2 -1 -30 -104 -71
-227z m445 -1840 c5 -124 13 -254 16 -290 12 -120 25 -29 35 235 9 259 16 332
30 341 5 3 9 -9 9 -26 0 -17 10 -91 21 -163 26 -161 28 -359 5 -562 -24 -205
-71 -386 -95 -359 -46 53 -101 398 -101 634 1 84 16 232 41 400 12 78 13 82
21 50 4 -19 12 -136 18 -260z"/>
<path d="M1596 8062 c-39 -75 -103 -84 -85 -12 3 10 -7 16 -31 20 -28 5 -40 1
-62 -19 -21 -18 -42 -26 -85 -29 -65 -5 -73 -12 -73 -64 0 -27 -6 -42 -26 -57
-35 -28 -43 -27 -55 9 -13 34 -16 36 -47 14 -17 -11 -22 -25 -22 -56 0 -33 -7
-47 -41 -81 -62 -64 -138 -177 -145 -217 -8 -48 -30 -80 -54 -80 -18 0 -25 16
-21 43 3 19 -21 4 -29 -19 -16 -40 -12 -59 20 -100 33 -40 36 -70 8 -88 -13
-8 -22 -6 -36 7 -19 17 -20 17 -31 -13 -9 -28 -8 -34 14 -56 13 -13 34 -24 46
-24 19 0 21 -4 16 -37 -3 -21 -8 -48 -12 -59 -5 -16 -2 -23 14 -27 12 -3 21
-10 21 -16 0 -23 -22 -9 -52 34 -32 46 -48 45 -48 -1 0 -25 24 -48 72 -68 30
-13 36 -21 42 -55 4 -26 20 -56 46 -86 27 -31 40 -56 40 -76 0 -26 -2 -28 -20
-17 -25 16 -29 10 -23 -31 l6 -33 66 6 c70 7 88 -1 104 -45 3 -9 31 -23 67
-33 48 -14 63 -23 70 -42 14 -35 13 -37 -15 -30 -28 7 -30 4 -15 -25 8 -14 21
-19 53 -19 37 0 45 4 60 30 19 32 41 33 96 5 l23 -12 -30 -12 c-41 -17 -31
-41 17 -41 43 0 61 14 61 47 0 24 14 31 25 13 4 -6 11 -7 17 -4 6 4 33 8 62
10 117 7 182 17 199 32 14 12 17 13 17 1 0 -8 -19 -26 -43 -41 l-42 -28 46 0
c50 0 59 9 59 56 0 34 58 70 79 50 15 -16 7 -36 -15 -36 -8 0 -14 -4 -14 -10
0 -5 20 -10 46 -10 42 0 46 2 60 35 18 44 19 43 -13 37 -25 -5 -26 -3 -15 10
22 27 79 49 107 42 l26 -6 -23 -26 -23 -25 34 7 c18 3 39 6 46 6 8 0 15 23 19
60 6 51 11 62 30 70 13 5 34 6 46 3 l23 -6 -24 -19 -24 -18 45 2 45 3 1 53 c1
35 8 60 19 73 24 25 33 24 47 -6 9 -20 18 -25 37 -23 21 2 27 9 29 36 2 19 -1
46 -6 62 -9 24 -7 31 16 54 19 17 32 22 41 16 12 -7 12 -11 2 -24 -12 -14 -10
-16 10 -16 13 0 30 4 37 8 17 11 27 78 13 86 -18 11 -13 24 12 29 22 4 22 4 0
6 -22 1 -39 33 -28 51 11 18 43 11 47 -10 3 -19 4 -20 26 -5 30 22 28 46 -10
115 -32 57 -32 59 -14 79 25 28 34 26 28 -4 -3 -20 -1 -24 11 -19 37 14 24
104 -16 104 -10 0 -21 -9 -24 -20 -3 -11 -8 -20 -12 -20 -12 0 -33 99 -27 124
5 19 -1 28 -28 47 -36 25 -66 67 -66 93 0 21 9 20 33 -1 20 -18 20 -17 14 21
-9 59 -27 72 -75 58 -73 -22 -102 -9 -102 48 0 17 -4 21 -17 15 -10 -3 -20 -7
-23 -8 -3 -1 -29 8 -57 21 -44 19 -53 27 -53 48 0 24 -2 25 -39 19 -40 -7 -85
9 -109 38 -9 11 -8 18 8 32 27 24 25 31 -9 43 -26 9 -35 7 -70 -19 -47 -33
-58 -35 -89 -13 -31 21 -27 34 10 34 30 0 31 0 13 20 -24 26 -47 32 -79 21
-31 -13 -34 -37 -5 -46 12 -4 17 -11 13 -15 -9 -8 -123 6 -133 16 -3 3 1 14 8
26 16 25 2 38 -41 38 -20 0 -31 -8 -42 -28z m-281 -1432 c-3 -5 -15 -10 -26
-10 -11 0 -17 5 -14 10 3 6 15 10 26 10 11 0 17 -4 14 -10z"/>
<path d="M4194 8070 c-38 -15 -36 -29 3 -35 58 -10 72 -18 38 -23 -16 -2 -34
-8 -39 -13 -15 -14 -62 -11 -76 6 -17 20 -74 29 -99 16 -27 -15 -27 -41 -1
-41 35 0 21 -28 -22 -45 -24 -9 -81 -38 -128 -65 -46 -27 -88 -46 -92 -44 -5
3 -5 16 -2 30 6 22 3 24 -30 24 -25 0 -38 -6 -46 -19 -15 -30 -12 -52 8 -50
31 3 33 -1 17 -31 -17 -33 -39 -37 -69 -15 -28 22 -63 18 -80 -7 -21 -30 -21
-51 2 -44 11 4 21 -2 28 -19 10 -20 8 -27 -15 -48 -14 -13 -40 -34 -58 -45
-29 -21 -30 -24 -21 -55 9 -29 6 -41 -18 -88 -16 -30 -30 -57 -32 -61 -2 -5 2
-8 10 -8 8 0 13 -12 13 -30 0 -23 -5 -30 -19 -30 -16 0 -15 -3 8 -21 26 -20
26 -22 11 -46 -16 -24 -16 -26 4 -39 11 -8 30 -42 42 -75 15 -41 29 -63 44
-69 30 -11 39 -39 21 -59 -9 -10 -12 -22 -7 -30 7 -11 9 -11 14 0 3 8 6 -1 6
-19 1 -50 17 -72 52 -72 l31 0 -26 31 c-26 31 -35 69 -16 69 6 0 10 -7 10 -15
0 -8 17 -26 38 -39 20 -13 50 -38 67 -55 16 -18 62 -48 102 -67 71 -34 99 -63
48 -50 -21 5 -25 3 -25 -18 0 -26 13 -40 49 -51 22 -7 23 -5 19 25 -5 31 -5
32 31 25 58 -11 113 -46 98 -61 -3 -3 -15 -1 -26 6 -18 9 -21 8 -21 -10 0 -28
35 -60 65 -60 29 0 32 12 9 35 -9 9 -14 18 -12 21 10 9 87 -9 117 -27 37 -23
39 -37 7 -41 -21 -3 -23 -5 -12 -20 6 -9 25 -18 41 -20 27 -3 30 0 27 24 -4
37 20 42 93 19 44 -14 65 -16 79 -9 12 6 50 8 95 4 60 -5 81 -3 98 9 20 14 23
13 37 -7 13 -18 16 -19 16 -6 0 25 37 43 56 27 13 -10 19 -8 37 13 26 31 114
71 123 57 3 -6 -2 -16 -12 -24 -21 -15 -19 -19 13 -29 17 -5 29 -1 48 18 33
33 32 48 -1 40 -23 -6 -25 -4 -22 22 3 29 4 29 73 32 38 2 75 7 81 13 13 10
24 79 14 79 -4 0 -12 -12 -18 -26 -15 -32 -32 -22 -32 20 0 41 15 56 56 56 73
0 108 41 86 99 -8 23 -9 23 -22 -8 -10 -25 -15 -29 -26 -20 -35 29 -6 81 51
95 17 4 36 11 43 17 16 12 16 58 -1 81 -12 16 -14 14 -25 -22 -12 -40 -37 -70
-49 -58 -4 3 4 17 16 30 17 19 19 25 8 29 -11 4 -15 31 -15 123 -1 116 0 118
29 151 34 39 38 78 10 93 -28 15 -34 13 -28 -11 5 -17 1 -20 -21 -17 -21 2
-26 8 -24 25 3 25 -38 103 -76 145 -23 25 -24 30 -13 73 12 46 8 85 -9 85 -5
0 -15 3 -24 6 -11 4 -16 0 -16 -14 0 -13 -9 -23 -22 -28 -18 -5 -29 2 -60 37
-34 40 -74 67 -151 101 -15 7 -30 22 -33 34 -5 20 -9 21 -35 10 -40 -15 -81 8
-90 50 -9 46 -17 54 -53 54 -48 0 -51 -11 -9 -34 41 -23 63 -57 23 -36 -13 7
-36 9 -55 6 -28 -6 -35 -3 -40 15 -5 15 -10 18 -15 9 -4 -7 -41 -13 -99 -16
-83 -3 -91 -2 -91 15 0 21 -30 51 -51 50 -8 0 -24 -4 -35 -9z m997 -633 c-17
-17 -24 -1 -10 25 12 21 14 21 17 4 2 -10 -1 -23 -7 -29z"/>
</g>
</svg>
